<?xml version="1.0" encoding="utf-8"?>
<!-- Generator: Adobe Illustrator 22.0.0, SVG Export Plug-In . SVG Version: 6.00 Build 0)  -->
<svg version="1.1" xmlns="http://www.w3.org/2000/svg" xmlns:xlink="http://www.w3.org/1999/xlink" x="0px" y="0px"
	 viewBox="0 0 100 100" style="enable-background:new 0 0 100 100;" xml:space="preserve">
<style type="text/css">
	.st0{fill:#FFFFFF;}
	.st1{fill:#E69186;}
</style>
<g id="Layer_3">
</g>
<g id="Layer_4">
	<g>
		<g>
			<path class="st0" d="M50,2c26.5,0,48,21.5,48,48S76.5,98,50,98S2,76.5,2,50S23.5,2,50,2 M50,0C22.4,0,0,22.4,0,50s22.4,50,50,50
				s50-22.4,50-50S77.6,0,50,0L50,0z"/>
		</g>
		<path class="st1" d="M30.3,36.2c-1.3,0-2.4,0.4-3.3,1.1c-0.8,0.7-1.3,1.7-1.3,3c0,1.3,0.4,2.4,1.2,3.2c0.8,0.8,1.8,1.4,3.1,1.9
			c1.3,0.4,2.7,0.8,4.2,1.2c1.6,0.4,3.1,0.9,4.6,1.4c1.5,0.6,2.9,1.3,4.2,2.1c1.3,0.8,2.3,2,3.1,3.5s1.2,3.3,1.2,5.4
			c0,3.7-1.5,6.8-4.5,9.5c-3,2.6-6.9,3.9-11.8,3.9s-8.8-1.2-11.8-3.5c-3-2.4-4.5-5.7-4.5-10h11.3c0.3,3.5,2.1,5.2,5.3,5.2
			c1.5,0,2.7-0.4,3.6-1.2c0.9-0.8,1.3-1.8,1.3-3.1s-0.4-2.3-1.2-3c-0.8-0.8-1.8-1.4-3.1-1.9c-1.3-0.5-2.7-0.9-4.2-1.3
			c-1.5-0.4-3.1-0.9-4.6-1.5c-1.5-0.6-2.9-1.3-4.2-2.1c-1.3-0.8-2.3-2-3.1-3.5c-0.8-1.5-1.2-3.3-1.2-5.4c0-4.1,1.5-7.3,4.5-9.7
			c3-2.4,6.9-3.7,11.6-3.7c4.7,0,8.5,1.1,11.4,3.2c2.9,2.1,4.4,5.5,4.5,10.1H35.1c-0.2-1.6-0.7-2.8-1.5-3.6
			C32.7,36.6,31.6,36.2,30.3,36.2z"/>
		<path class="st0" d="M52.1,28.4h18.9c4.4,0,7.9,1.1,10.6,3.2c2.6,2.1,3.9,4.9,3.9,8.2c0,4.9-2.9,8.2-8.6,10c2.9,0.4,5.3,1.6,7,3.7
			s2.6,4.4,2.6,7.1c0,3.5-1.3,6.2-3.8,8.3c-2.5,2-6.1,3.1-10.6,3.1h-20V28.4z M62.7,36.5v9.4h6.9c1.5,0,2.8-0.4,3.7-1.2
			c0.9-0.8,1.4-2,1.4-3.5c0-1.5-0.5-2.7-1.4-3.5c-0.9-0.8-2.2-1.2-3.7-1.2H62.7z M62.7,63.9h8c1.4,0,2.6-0.4,3.6-1.3
			c1-0.9,1.4-2.1,1.4-3.6s-0.5-2.7-1.4-3.7c-0.9-0.9-2.1-1.4-3.5-1.4h-8.1V63.9z"/>
	</g>
</g>
</svg>
